<?xml version="1.0" encoding="UTF-8" standalone="no"?>
<!-- Created with Inkscape (http://www.inkscape.org/) -->

<svg
   xmlns:dc="http://purl.org/dc/elements/1.1/"
   xmlns:cc="http://creativecommons.org/ns#"
   xmlns:rdf="http://www.w3.org/1999/02/22-rdf-syntax-ns#"
   xmlns:svg="http://www.w3.org/2000/svg"
   xmlns="http://www.w3.org/2000/svg"
   xmlns:xlink="http://www.w3.org/1999/xlink"
   xmlns:sodipodi="http://sodipodi.sourceforge.net/DTD/sodipodi-0.dtd"
   xmlns:inkscape="http://www.inkscape.org/namespaces/inkscape"
   version="1.1"
   id="svg815"
   width="500"
   height="500"
   viewBox="0 0 500 500"
   sodipodi:docname="gradient.svg"
   inkscape:version="0.92.4 (5da689c313, 2019-01-14)">
  <metadata
     id="metadata821">
    <rdf:RDF>
      <cc:Work
         rdf:about="">
        <dc:format>image/svg+xml</dc:format>
        <dc:type
           rdf:resource="http://purl.org/dc/dcmitype/StillImage" />
        <dc:title></dc:title>
      </cc:Work>
    </rdf:RDF>
  </metadata>
  <defs
     id="defs819">
    <linearGradient
       inkscape:collect="always"
       id="linearGradient1413">
      <stop
         style="stop-color:#ffaaee;stop-opacity:1"
         offset="0"
         id="stop1409" />
      <stop
         style="stop-color:#ff8080;stop-opacity:1"
         offset="1"
         id="stop1411" />
    </linearGradient>
    <linearGradient
       inkscape:collect="always"
       xlink:href="#linearGradient1413"
       id="linearGradient1415"
       x1="-39.466427"
       y1="138.22444"
       x2="535.26337"
       y2="237.71272"
       gradientUnits="userSpaceOnUse" />
  </defs>
  <sodipodi:namedview
     pagecolor="#ffffff"
     bordercolor="#666666"
     borderopacity="1"
     objecttolerance="10"
     gridtolerance="10"
     guidetolerance="10"
     inkscape:pageopacity="0"
     inkscape:pageshadow="2"
     inkscape:window-width="1920"
     inkscape:window-height="1027"
     id="namedview817"
     showgrid="false"
     inkscape:zoom="1.2162237"
     inkscape:cx="237.84407"
     inkscape:cy="262.65514"
     inkscape:window-x="-8"
     inkscape:window-y="-8"
     inkscape:window-maximized="1"
     inkscape:current-layer="layer2" />
  <g
     inkscape:groupmode="layer"
     id="layer2"
     inkscape:label="background">
    <rect
       style="opacity:1;fill:url(#linearGradient1415);fill-opacity:1;stroke-width:1.1431179"
       id="rect1391"
       width="500"
       height="500"
       x="9.3165937e-07"
       y="-1.3306737e-05" />
  </g>
  <g
     inkscape:groupmode="layer"
     id="layer1"
     inkscape:label="Layer 1">
    <path
       style="fill:#ffffff"
       d="m 124.86078,374.08176 c -2.16446,-1.75873 -2.34858,-2.6111 -2.21406,-10.25 0.16965,-9.63429 3.04832,-20.41737 9.29641,-34.82307 4.4514,-10.26323 4.86303,-12.69873 2.44502,-14.46681 -1.47522,-1.07872 -1.44312,-1.85088 0.37881,-9.11025 2.63573,-10.5019 4.52606,-10.65576 5.30288,-0.43163 0.31341,4.125 0.65091,7.03779 0.75,6.47286 0.0991,-0.56493 1.50479,-2.47743 3.12379,-4.25 8.58842,-9.40312 18.00996,4.19853 10.5365,15.21129 l -2.51988,3.71324 2.26988,-0.67782 c 6.48527,-1.93661 11.43181,-8.39319 13.20262,-17.23304 0.7684,-3.83585 1.63257,-5.73653 2.6082,-5.73653 1.1975,0 1.39707,1.63784 1.11328,9.1368 -0.37576,9.92947 0.63836,13.3632 3.9467,13.3632 3.18014,0 5.32706,-1.55117 8.22165,-5.94023 1.47258,-2.23287 3.81871,-5.79496 5.21361,-7.91574 1.39491,-2.12079 3.62884,-4.35382 4.96429,-4.9623 3.83107,-1.74555 4.16358,0.53792 0.61194,4.20228 -7.44557,7.68188 -0.0955,19.30589 8.0268,12.69431 l 2.36078,-1.92168 -2.83019,-2.96674 c -3.55859,-3.73028 -4.67203,-10.04482 -2.20603,-12.51082 4.39859,-4.3986 9.53622,0.0489 9.53622,8.25518 0,3.55908 0.28039,4.06178 2.25,4.03394 3.23701,-0.0458 5.13257,-1.81671 8.00264,-7.4766 3.32868,-6.56428 6.28652,-9.27344 8.5559,-7.83655 1.37543,0.87087 1.69146,2.68499 1.69146,9.70948 0,4.75118 0.0795,8.63783 0.17661,8.63699 0.0971,-8.4e-4 1.54769,-2.39792 3.22346,-5.32686 C 237.01933,308.47494 240.41454,305 243.32981,305 c 3.93509,0 5.18996,2.52576 4.91785,9.89846 -0.30185,8.17814 0.58737,9.89086 4.44346,8.55853 1.82131,-0.62929 4.29925,-3.25346 7.04783,-7.46375 C 265.85189,306.62941 269.0576,304 274.36079,304 c 3.06365,0 4.85997,0.58646 6.14476,2.00613 2.34494,2.59113 1.4659,3.37864 -2.68404,2.40457 -4.66388,-1.09469 -6.96093,-0.60857 -9.68108,2.04879 -3.01656,2.94693 -4.10764,10.49291 -1.79472,12.41246 0.8984,0.74561 2.45481,1.00875 3.6753,0.62138 2.38452,-0.75682 5.96957,-6.04667 5.97525,-8.81665 0.007,-3.60183 3.43688,-1.37928 4.09215,2.65199 1.35692,8.34796 6.98892,8.76694 11.99183,0.8921 3.00924,-4.7367 3.2931,-5.53988 4.40746,-12.47077 0.37597,-2.33844 1.1505,-3.75 2.05761,-3.75 1.17154,0 1.45469,1.86196 1.45469,9.56574 0,5.26116 0.46583,10.43616 1.03518,11.5 2.26592,4.23391 8.00844,1.02392 13.53472,-7.56574 1.74273,-2.70877 1.97864,-5.52398 2.4301,-29 0.42735,-22.22222 0.71795,-26 2,-26 1.30253,0 1.47589,3.75193 1.31684,28.5 l -0.18317,28.5 2.02159,-4.20206 c 4.01014,-8.33545 9.75273,-11.8987 14.33615,-8.89553 5.4021,3.5396 3.49917,11.09154 -3.74141,14.84809 -4.22357,2.19127 -4.61776,3.21472 -1.81574,4.71432 7.81421,4.18204 18.89371,-4.86389 20.05282,-16.37227 C 351.3529,303.96047 351.93018,302.5 353,302.5 c 1.22907,0 1.5,1.73232 1.5,9.59084 0,10.32867 0.98656,12.90916 4.93535,12.90916 2.49175,0 6.11257,-3.54571 9.95657,-9.75 1.44824,-2.3375 3.05097,-4.25 3.56161,-4.25 2.30033,0 1.96484,2.45211 -0.95884,7.00827 C 367.90622,324.37961 362.60709,329 359.38828,329 356.50041,329 351,324.06457 351,321.47333 c 0,-1.29335 -0.8472,-0.93667 -3.67727,1.54817 -7.4362,6.52907 -14.93817,7.45397 -19.93446,2.45768 -3.67659,-3.67659 -3.0887,-5.9617 2.19138,-8.51774 4.70614,-2.2782 7.14141,-5.64002 6.08319,-8.39767 -2.00363,-5.22139 -9.50565,2.21573 -12.92,12.80822 -1.2183,3.7796 -2.82925,7.10767 -3.57989,7.39572 -1.78014,0.6831 -3.12844,-1.53197 -3.14764,-5.17111 L 316,320.6932 l -3.53919,3.64418 c -6.08351,6.26399 -12.09554,5.83297 -15.58926,-1.11763 l -1.62844,-3.23973 -1.6705,2.54951 c -3.81607,5.82405 -12.48562,6.95027 -14.7777,1.9197 l -1.13707,-2.4956 -2.8076,2.68985 c -3.8075,3.64782 -8.36309,3.62419 -11.53194,-0.0598 l -2.36518,-2.74968 -3.51135,3.08302 c -4.0365,3.54409 -7.21753,3.8957 -10.58099,1.16954 -2.13592,-1.73122 -2.34597,-2.63609 -2.20528,-9.5 0.22767,-11.1074 -2.51197,-9.8895 -10.68561,4.75029 -3.53494,6.33141 -5.38172,7.70374 -7.46866,5.54992 -1.05778,-1.09168 -1.15688,-3.19385 -0.46572,-9.88001 0.49986,-4.83562 0.50216,-8.86906 0.005,-9.36588 -0.49682,-0.49682 -2.02399,1.56118 -3.54617,4.77882 -2.95844,6.25362 -5.46841,8.37725 -10.95327,9.26732 -2.11441,0.34312 -4.88191,1.80736 -6.52885,3.4543 C 202.67707,327.47678 201.292,328 197.445,328 c -4.0431,0 -5.15417,-0.47219 -7.85869,-3.33981 l -3.14984,-3.3398 -1.81021,2.39984 c -2.53751,3.36405 -7.82841,5.69683 -11.07352,4.88236 -1.56326,-0.39235 -3.51665,-2.12197 -4.742,-4.19878 l -2.08369,-3.53159 -3.11352,2.94389 c -4.33354,4.09745 -6.80924,5.18447 -11.79779,5.18015 -4.50818,-0.004 -10.71737,-2.97292 -10.94091,-5.23156 -0.37197,-3.75851 -1.73733,9.06538 -1.80071,16.91294 -0.14581,18.05406 -3.31806,31.77699 -7.91432,34.23684 -2.77858,1.48705 -3.57338,1.38198 -6.29902,-0.83272 z m 6.69864,-5.56972 c 2.41917,-5.7899 5.71859,-39.24025 3.65072,-37.01204 -1.34926,1.45389 -5.96142,14.94538 -7.69178,22.5 -1.54656,6.75217 -2.00958,16.17545 -0.85169,17.33333 1.56488,1.56489 3.53466,0.42906 4.89275,-2.82129 z m 18.98603,-46.96659 C 152.49831,319.5926 153,318.06685 153,314.08064 c 0,-9.44278 -5.50597,-8.1133 -10.88998,2.62952 -2.50701,5.00229 -2.56129,5.40024 -0.63572,4.66133 0.81087,-0.31116 2.19301,0.15296 3.07143,1.03138 2.15844,2.15844 3.1215,2.02081 5.99972,-0.85742 z M 205.46186,312.75 c -0.83842,-3.90911 -1.28469,-4.75 -2.52088,-4.75 -1.25507,0 -1.19838,3.65053 0.0942,6.06574 1.68601,3.15032 3.2076,2.32531 2.42668,-1.31574 z M 26,361.55902 c 0,-0.79254 0.399012,-1.68759 0.886693,-1.98899 1.10115,-0.68055 3.342296,1.86765 2.437964,2.77198 C 28.134889,363.53178 26,363.02899 26,361.55902 Z m 449,0 c 0,-0.79254 0.39901,-1.68759 0.88669,-1.98899 1.10115,-0.68055 3.3423,1.86765 2.43797,2.77198 C 477.13489,363.53178 475,363.02899 475,361.55902 Z M 31.446149,356.91287 c -1.030521,-1.66742 1.287209,-3.57951 2.666719,-2.2 C 35.266792,355.86679 34.544589,358 33,358 c -0.485081,0 -1.184314,-0.48921 -1.553851,-1.08713 z m 438.000001,0 c -1.03052,-1.66742 1.28721,-3.57951 2.66672,-2.2 C 473.26679,355.86679 472.54459,358 471,358 c -0.48508,0 -1.18431,-0.48921 -1.55385,-1.08713 z M 37.121983,351.64698 C 35.906424,350.18232 36.596386,349 38.666667,349 c 1.489699,0 1.82538,2.57786 0.44664,3.42997 -0.487681,0.30141 -1.383777,-0.0509 -1.991324,-0.78299 z m 427.565517,0.70719 c -1.37384,-1.37385 -0.66124,-3.49576 1.0625,-3.1638 0.9625,0.18536 1.75,0.96836 1.75,1.73999 0,1.57886 -1.76429,2.47201 -2.8125,1.42381 z M 42,345.55902 c 0,-0.79254 0.399012,-1.68759 0.886693,-1.98899 1.10115,-0.68055 3.342296,1.86765 2.437964,2.77198 C 44.134889,347.53178 42,347.02899 42,345.55902 Z m 417,0 c 0,-0.79254 0.39901,-1.68759 0.88669,-1.98899 1.10115,-0.68055 3.3423,1.86765 2.43797,2.77198 C 461.13489,347.53178 459,347.02899 459,345.55902 Z M 47.446149,340.91287 c -1.030521,-1.66742 1.287209,-3.57951 2.666719,-2.2 C 51.266792,339.86679 50.544589,342 49,342 c -0.485081,0 -1.184314,-0.48921 -1.553851,-1.08713 z m 406.000001,0 c -1.03052,-1.66742 1.28721,-3.57951 2.66672,-2.2 C 457.26679,339.86679 456.54459,342 455,342 c -0.48508,0 -1.18431,-0.48921 -1.55385,-1.08713 z M 53.121983,335.64698 C 51.906424,334.18232 52.596386,333 54.666667,333 c 1.489699,0 1.82538,2.57786 0.44664,3.42997 -0.487681,0.30141 -1.383777,-0.0509 -1.991324,-0.78299 z m 395.565517,0.70719 c -1.37384,-1.37385 -0.66124,-3.49576 1.0625,-3.1638 0.9625,0.18536 1.75,0.96836 1.75,1.73999 0,1.57886 -1.76429,2.47201 -2.8125,1.42381 z M 58.172882,329.34081 C 58.594332,327.1524 61.5,326.8428 61.5,328.9863 c 0,0.81747 -0.828366,1.64584 -1.840813,1.84082 -1.336396,0.25736 -1.743671,-0.14991 -1.486305,-1.48631 z m 385.003798,0.10637 c 0.45227,-2.17211 2.22702,-2.30502 2.63295,-0.19718 0.2108,1.0946 -0.27967,1.75 -1.30963,1.75 -0.96073,0 -1.51197,-0.64684 -1.32332,-1.55282 z M 63.446149,324.91287 c -1.030521,-1.66742 1.287209,-3.57951 2.666719,-2.2 C 67.266792,323.86679 66.544589,326 65,326 c -0.485081,0 -1.184314,-0.48921 -1.553851,-1.08713 z m 374.000001,0 c -1.03052,-1.66742 1.28721,-3.57951 2.66672,-2.2 C 441.26679,323.86679 440.54459,326 439,326 c -0.48508,0 -1.18431,-0.48921 -1.55385,-1.08713 z M 69.121983,319.64698 C 67.906424,318.18232 68.596386,317 70.666667,317 c 1.489699,0 1.82538,2.57786 0.44664,3.42997 -0.487681,0.30141 -1.383777,-0.0509 -1.991324,-0.78299 z m 363.216627,-0.20697 c -0.75083,-1.95661 0.15198,-2.84947 2.11826,-2.09493 1.97817,0.75909 1.9808,2.27299 0.005,3.03107 -0.88556,0.33982 -1.78628,-0.0573 -2.12354,-0.93614 z M 74.172882,313.34081 C 74.594332,311.1524 77.5,310.8428 77.5,312.9863 c 0,0.81747 -0.828366,1.64584 -1.840813,1.84082 -1.336396,0.25736 -1.743671,-0.14991 -1.486305,-1.48631 z m 353.003798,0.10637 c 0.45227,-2.17211 2.22702,-2.30502 2.63295,-0.19718 0.2108,1.0946 -0.27967,1.75 -1.30963,1.75 -0.96073,0 -1.51197,-0.64684 -1.32332,-1.55282 z M 79.446149,308.91287 c -1.030521,-1.66742 1.287209,-3.57951 2.666719,-2.2 C 83.266792,307.86679 82.544589,310 81,310 c -0.485081,0 -1.184314,-0.48921 -1.553851,-1.08713 z m 342.000001,0 c -1.03052,-1.66742 1.28721,-3.57951 2.66672,-2.2 C 425.26679,307.86679 424.54459,310 423,310 c -0.48508,0 -1.18431,-0.48921 -1.55385,-1.08713 z M 85.63948,304.30615 C 84.444324,303.11099 84.99377,301 86.5,301 c 0.825,0 1.5,0.64844 1.5,1.44098 0,1.67065 -1.427277,2.79841 -2.36052,1.86517 z m 330.69913,-0.86614 c -0.75083,-1.95661 0.15198,-2.84947 2.11826,-2.09493 1.97817,0.75909 1.9808,2.27299 0.005,3.03107 -0.88556,0.33982 -1.78628,-0.0573 -2.12354,-0.93614 z M 90.172882,297.34081 C 90.594332,295.1524 93.5,294.8428 93.5,296.9863 c 0,0.81747 -0.828366,1.64584 -1.840813,1.84082 -1.336396,0.25736 -1.743671,-0.14991 -1.486305,-1.48631 z m 321.003798,0.10637 c 0.45227,-2.17211 2.22702,-2.30502 2.63295,-0.19718 0.2108,1.0946 -0.27967,1.75 -1.30963,1.75 -0.96073,0 -1.51197,-0.64684 -1.32332,-1.55282 z M 95.446149,292.91287 c -1.030521,-1.66742 1.287209,-3.57951 2.666719,-2.2 C 99.266792,291.86679 98.544589,294 97,294 c -0.485081,0 -1.184314,-0.48921 -1.553851,-1.08713 z m 72.125281,-0.4843 C 166.70714,291.56429 166,290.24643 166,289.5 c 0,-1.7509 2.7491,-4.5 4.5,-4.5 1.7509,0 4.5,2.7491 4.5,4.5 0,1.7509 -2.7491,4.5 -4.5,4.5 -0.74643,0 -2.06429,-0.70714 -2.92857,-1.57143 z M 172,289.5 c 0,-0.825 -0.675,-1.5 -1.5,-1.5 -0.825,0 -1.5,0.675 -1.5,1.5 0,0.825 0.675,1.5 1.5,1.5 0.825,0 1.5,-0.675 1.5,-1.5 z m 124.04568,3.05504 c -2.80698,-3.3822 1.07622,-9.22949 4.63749,-6.98309 3.26152,2.05731 3.87648,4.15217 1.8698,6.36951 -2.17778,2.40642 -4.81313,2.65491 -6.50729,0.61358 z M 300.15,289.5 c 0,-0.5225 -0.48375,-1.11125 -1.075,-1.30833 -0.59125,-0.19709 -1.075,0.39166 -1.075,1.30833 0,0.91667 0.48375,1.50542 1.075,1.30833 0.59125,-0.19708 1.075,-0.78583 1.075,-1.30833 z m 50.89568,3.05504 c -2.84426,-3.42712 1.07853,-9.22068 4.70432,-6.9478 3.56834,2.23687 2.28475,8.39276 -1.75,8.39276 -0.96531,0 -2.29475,-0.65023 -2.95432,-1.44496 z M 355.15,289.5 c 0,-0.5225 -0.48375,-1.11125 -1.075,-1.30833 -0.59125,-0.19709 -1.075,0.39166 -1.075,1.30833 0,0.91667 0.48375,1.50542 1.075,1.30833 0.59125,-0.19708 1.075,-0.78583 1.075,-1.30833 z m 50.29615,3.41287 c -1.03052,-1.66742 1.28721,-3.57951 2.66672,-2.2 C 409.26679,291.86679 408.54459,294 407,294 c -0.48508,0 -1.18431,-0.48921 -1.55385,-1.08713 z M 101.63948,288.30615 C 100.44432,287.11099 100.99377,285 102.5,285 c 0.825,0 1.5,0.64844 1.5,1.44098 0,1.67065 -1.42728,2.79841 -2.36052,1.86517 z m 298.69913,-0.86614 c -0.75083,-1.95661 0.15198,-2.84947 2.11826,-2.09493 1.97817,0.75909 1.9808,2.27299 0.005,3.03107 -0.88556,0.33982 -1.78628,-0.0573 -2.12354,-0.93614 z m -294.16573,-6.0992 c 0.19498,-1.01244 1.02335,-1.84081 1.84082,-1.84081 2.1435,0 1.8339,2.90567 -0.35451,3.32712 -1.3364,0.25736 -1.74367,-0.14991 -1.48631,-1.48631 z m 289.0038,0.10637 c 0.45227,-2.17211 2.22702,-2.30502 2.63295,-0.19718 0.2108,1.0946 -0.27967,1.75 -1.30963,1.75 -0.96073,0 -1.51197,-0.64684 -1.32332,-1.55282 z m -283.73053,-4.53431 c -1.03052,-1.66742 1.28721,-3.57951 2.66672,-2.2 C 115.26679,275.86679 114.54459,278 113,278 c -0.48508,0 -1.18431,-0.48921 -1.55385,-1.08713 z m 278,0 c -1.03052,-1.66742 1.28721,-3.57951 2.66672,-2.2 C 393.26679,275.86679 392.54459,278 391,278 c -0.48508,0 -1.18431,-0.48921 -1.55385,-1.08713 z m -4.78816,-4.58821 C 384.2961,271.96276 384,271.06667 384,270.33333 c 0,-1.4897 2.57786,-1.82538 3.42997,-0.44664 0.68055,1.10115 -1.86765,3.3423 -2.77198,2.43797 z M 117,270.5 c 0,-0.825 0.675,-1.5 1.5,-1.5 0.825,0 1.5,0.675 1.5,1.5 0,0.825 -0.675,1.5 -1.5,1.5 -0.825,0 -1.5,-0.675 -1.5,-1.5 z m 5.44615,-4.58713 c -1.03052,-1.66742 1.28721,-3.57951 2.66672,-2.2 C 126.26679,264.86679 125.54459,267 124,267 c -0.48508,0 -1.18431,-0.48921 -1.55385,-1.08713 z m 256.73053,-0.46569 c 0.45227,-2.17211 2.22702,-2.30502 2.63295,-0.19718 0.2108,1.0946 -0.27967,1.75 -1.30963,1.75 -0.96073,0 -1.51197,-0.64684 -1.32332,-1.55282 z m -251.73053,-4.53431 c -1.03052,-1.66742 1.28721,-3.57951 2.66672,-2.2 C 131.26679,259.86679 130.54459,262 129,262 c -0.48508,0 -1.18431,-0.48921 -1.55385,-1.08713 z m 36.51707,-0.12218 c -1.35421,-0.50095 -3.50271,-1.88834 -4.77445,-3.08307 -1.95422,-1.8359 -2.27269,-3.02616 -2.05679,-7.68708 0.30545,-6.59401 -0.25382,-6.87353 -9.1782,-4.58721 -8.08366,2.07094 -8.70131,1.99128 -6.09245,-0.78572 2.68706,-2.86024 9.00538,-4.88237 14.10493,-4.51417 3.35443,0.24219 4.47558,-0.3657 10.1523,-5.50464 12.70451,-11.50096 28.97106,-17.06952 49.88144,-17.07602 16.06086,-0.005 22.38522,2.01628 53,16.9388 26.54434,12.93848 34.62706,15.74872 53.17804,18.48922 12.7956,1.89026 26.82514,-0.78475 34.50524,-6.57913 4.90689,-3.70208 7.03242,-3.00482 3.54448,1.16275 -4.05635,4.84674 -11.38385,7.81392 -23.33885,9.45079 -6.72465,0.92073 -9.98575,0.82562 -18.73543,-0.54641 -17.50893,-2.74557 -25.98145,-5.78794 -51.61881,-18.53561 C 236.64952,223.07337 228.2361,220.52092 212,221.38854 c -5.775,0.3086 -13.2,1.0534 -16.5,1.65511 -8.68707,1.58398 -21.66309,8.14328 -27.78751,14.04643 l -5.15506,4.96882 4.44697,2.94401 c 4.96691,3.28823 7.93994,6.68535 7.97336,9.11073 0.0266,1.92697 -4.31077,6.47868 -6.79178,7.12747 -0.96831,0.25322 -2.86856,0.0505 -4.22276,-0.45042 z m 6.02621,-4.27796 c 1.75196,-2.11098 0.72101,-3.98555 -4.12095,-7.49304 -4.60919,-3.33888 -5.82474,-2.8757 -5.85317,2.23031 -0.0294,5.27625 6.91983,8.94293 9.97412,5.26273 z m 203.45672,4.40014 c -1.03052,-1.66742 1.28721,-3.57951 2.66672,-2.2 C 377.26679,259.86679 376.54459,262 375,262 c -0.48508,0 -1.18431,-0.48921 -1.55385,-1.08713 z m -4.78816,-4.58821 C 368.2961,255.96276 368,255.06667 368,254.33333 c 0,-1.4897 2.57786,-1.82538 3.42997,-0.44664 0.68055,1.10115 -1.86765,3.3423 -2.77198,2.43797 z M 133,254.5 c 0,-0.825 0.675,-1.5 1.5,-1.5 0.825,0 1.5,0.675 1.5,1.5 0,0.825 -0.675,1.5 -1.5,1.5 -0.825,0 -1.5,-0.675 -1.5,-1.5 z m 0,-8.94098 c 0,-0.79254 0.39901,-1.68759 0.88669,-1.98899 1.10115,-0.68055 3.3423,1.86765 2.43797,2.77198 C 135.13489,247.53178 133,247.02899 133,245.55902 Z M 368,245.5 c 0,-1.02996 0.6554,-1.52043 1.75,-1.30963 2.10784,0.40593 1.97493,2.18068 -0.19718,2.63295 C 368.64684,247.01197 368,246.46073 368,245.5 Z m -240.55385,-4.58713 c -1.03052,-1.66742 1.28721,-3.57951 2.66672,-2.2 C 131.26679,239.86679 130.54459,242 129,242 c -0.48508,0 -1.18431,-0.48921 -1.55385,-1.08713 z m 246,0 c -1.03052,-1.66742 1.28721,-3.57951 2.66672,-2.2 C 377.26679,239.86679 376.54459,242 375,242 c -0.48508,0 -1.18431,-0.48921 -1.55385,-1.08713 z m -250.75865,-4.5587 c -1.37384,-1.37385 -0.66124,-3.49576 1.0625,-3.1638 0.9625,0.18536 1.75,0.96836 1.75,1.73999 0,1.57886 -1.76429,2.47201 -2.8125,1.42381 z m 256.95198,-0.048 C 378.44432,235.11099 378.99377,233 380.5,233 c 0.825,0 1.5,0.64844 1.5,1.44098 0,1.67065 -1.42728,2.79841 -2.36052,1.86517 z M 117,229.55902 c 0,-0.79254 0.39901,-1.68759 0.88669,-1.98899 1.10115,-0.68055 3.3423,1.86765 2.43797,2.77198 C 119.13489,231.53178 117,231.02899 117,229.55902 Z m 267,0.0143 C 384,228.64569 384.855,228 386.08333,228 c 2.43705,0 2.09257,2.33677 -0.4162,2.82332 C 384.68037,231.0147 384,230.50456 384,229.57332 Z m -272.55385,-4.66045 c -1.03052,-1.66742 1.28721,-3.57951 2.66672,-2.2 C 115.26679,223.86679 114.54459,226 113,226 c -0.48508,0 -1.18431,-0.48921 -1.55385,-1.08713 z m 278,0 c -1.03052,-1.66742 1.28721,-3.57951 2.66672,-2.2 C 393.26679,223.86679 392.54459,226 391,226 c -0.48508,0 -1.18431,-0.48921 -1.55385,-1.08713 z m -282.75865,-4.5587 c -1.37384,-1.37385 -0.66124,-3.49576 1.0625,-3.1638 0.9625,0.18536 1.75,0.96836 1.75,1.73999 0,1.57886 -1.76429,2.47201 -2.8125,1.42381 z m 288.95198,-0.048 C 394.44432,219.11099 394.99377,217 396.5,217 c 0.825,0 1.5,0.64844 1.5,1.44098 0,1.67065 -1.42728,2.79841 -2.36052,1.86517 z M 101,213.55902 c 0,-0.79254 0.39901,-1.68759 0.88669,-1.98899 1.10115,-0.68055 3.3423,1.86765 2.43797,2.77198 C 103.13489,215.53178 101,215.02899 101,213.55902 Z m 299,0.0143 C 400,212.64569 400.855,212 402.08333,212 c 2.43705,0 2.09257,2.33677 -0.4162,2.82332 C 400.68037,215.0147 400,214.50456 400,213.57332 Z M 95.446149,208.91287 c -1.030521,-1.66742 1.287209,-3.57951 2.666719,-2.2 C 99.266792,207.86679 98.544589,210 97,210 c -0.485081,0 -1.184314,-0.48921 -1.553851,-1.08713 z m 310.000001,0 c -1.03052,-1.66742 1.28721,-3.57951 2.66672,-2.2 C 409.26679,207.86679 408.54459,210 407,210 c -0.48508,0 -1.18431,-0.48921 -1.55385,-1.08713 z M 90.6875,204.35417 c -1.373842,-1.37385 -0.661238,-3.49576 1.0625,-3.1638 0.9625,0.18536 1.75,0.96836 1.75,1.73999 0,1.57886 -1.764293,2.47201 -2.8125,1.42381 z m 320.95198,-0.048 C 410.44432,203.11099 410.99377,201 412.5,201 c 0.825,0 1.5,0.64844 1.5,1.44098 0,1.67065 -1.42728,2.79841 -2.36052,1.86517 z M 85.176676,197.44718 c 0.452271,-2.17211 2.22702,-2.30502 2.632953,-0.19718 C 88.02043,198.3446 87.529958,199 86.5,199 c -0.960727,0 -1.511966,-0.64684 -1.323324,-1.55282 z M 416,197.55902 c 0,-0.79254 0.35899,-1.66285 0.79775,-1.93402 1.27929,-0.79065 3.52519,1.04345 2.77135,2.2632 C 418.5769,199.49361 416,199.25594 416,197.55902 Z M 79.446149,192.91287 c -1.030521,-1.66742 1.287209,-3.57951 2.666719,-2.2 C 83.266792,191.86679 82.544589,194 81,194 c -0.485081,0 -1.184314,-0.48921 -1.553851,-1.08713 z m 342.000001,0 c -1.03052,-1.66742 1.28721,-3.57951 2.66672,-2.2 C 425.26679,191.86679 424.54459,194 423,194 c -0.48508,0 -1.18431,-0.48921 -1.55385,-1.08713 z M 74.338607,187.44001 c -0.750822,-1.95661 0.15198,-2.84947 2.118265,-2.09493 1.978164,0.75909 1.980798,2.27299 0.0053,3.03107 -0.885558,0.33982 -1.786278,-0.0572 -2.123539,-0.93614 z m 353.319383,0.88465 C 427.2961,187.96276 427,187.06667 427,186.33333 c 0,-1.4897 2.57786,-1.82538 3.42997,-0.44664 0.68055,1.10115 -1.86765,3.3423 -2.77198,2.43797 z M 69.176676,181.44718 c 0.452271,-2.17211 2.22702,-2.30502 2.632953,-0.19718 C 72.02043,182.3446 71.529958,183 70.5,183 c -0.960727,0 -1.511966,-0.64684 -1.323324,-1.55282 z M 432,181.55902 c 0,-0.79254 0.35899,-1.66285 0.79775,-1.93402 1.27929,-0.79065 3.52519,1.04345 2.77135,2.2632 C 434.5769,183.49361 432,183.25594 432,181.55902 Z M 63.446149,176.91287 c -1.030521,-1.66742 1.287209,-3.57951 2.666719,-2.2 C 67.266792,175.86679 66.544589,178 65,178 c -0.485081,0 -1.184314,-0.48921 -1.553851,-1.08713 z m 374.000001,0 c -1.03052,-1.66742 1.28721,-3.57951 2.66672,-2.2 C 441.26679,175.86679 440.54459,178 439,178 c -0.48508,0 -1.18431,-0.48921 -1.55385,-1.08713 z M 58.338607,171.44001 c -0.750822,-1.95661 0.15198,-2.84947 2.118265,-2.09493 1.978164,0.75909 1.980798,2.27299 0.0053,3.03107 -0.885558,0.33982 -1.786278,-0.0572 -2.123539,-0.93614 z m 385.319383,0.88465 C 443.2961,171.96276 443,171.06667 443,170.33333 c 0,-1.4897 2.57786,-1.82538 3.42997,-0.44664 0.68055,1.10115 -1.86765,3.3423 -2.77198,2.43797 z M 53.176676,165.44718 c 0.452271,-2.17211 2.22702,-2.30502 2.632953,-0.19718 C 56.02043,166.3446 55.529958,167 54.5,167 c -0.960727,0 -1.511966,-0.64684 -1.323324,-1.55282 z m 394.996204,-0.10637 c 0.42145,-2.18841 3.32712,-2.49801 3.32712,-0.35451 0,0.81747 -0.82837,1.64584 -1.84081,1.84082 -1.3364,0.25736 -1.74367,-0.14991 -1.48631,-1.48631 z M 47.446149,160.91287 c -1.030521,-1.66742 1.287209,-3.57951 2.666719,-2.2 C 51.266792,159.86679 50.544589,162 49,162 c -0.485081,0 -1.184314,-0.48921 -1.553851,-1.08713 z m 406.000001,0 c -1.03052,-1.66742 1.28721,-3.57951 2.66672,-2.2 C 457.26679,159.86679 456.54459,162 455,162 c -0.48508,0 -1.18431,-0.48921 -1.55385,-1.08713 z M 42.657991,156.32466 C 42.296096,155.96276 42,155.06667 42,154.33333 c 0,-1.4897 2.577864,-1.82538 3.429973,-0.44664 0.680548,1.10115 -1.867651,3.3423 -2.771982,2.43797 z m 416.999999,0 C 459.2961,155.96276 459,155.06667 459,154.33333 c 0,-1.4897 2.57786,-1.82538 3.42997,-0.44664 0.68055,1.10115 -1.86765,3.3423 -2.77198,2.43797 z M 37.176676,149.44718 c 0.452271,-2.17211 2.22702,-2.30502 2.632953,-0.19718 C 40.02043,150.3446 39.529958,151 38.5,151 c -0.960727,0 -1.511966,-0.64684 -1.323324,-1.55282 z m 426.996204,-0.10637 c 0.19498,-1.01244 1.02335,-1.84081 1.84082,-1.84081 2.1435,0 1.8339,2.90567 -0.35451,3.32712 -1.3364,0.25736 -1.74367,-0.14991 -1.48631,-1.48631 z M 31.446149,144.91287 c -1.030521,-1.66742 1.287209,-3.57951 2.666719,-2.2 C 35.266792,143.86679 34.544589,146 33,146 c -0.485081,0 -1.184314,-0.48921 -1.553851,-1.08713 z m 438.000001,0 c -1.03052,-1.66742 1.28721,-3.57951 2.66672,-2.2 C 473.26679,143.86679 472.54459,146 471,146 c -0.48508,0 -1.18431,-0.48921 -1.55385,-1.08713 z M 26.657991,140.32466 C 26.296096,139.96276 26,139.06667 26,138.33333 c 0,-1.4897 2.577864,-1.82538 3.429973,-0.44664 0.680548,1.10115 -1.867651,3.3423 -2.771982,2.43797 z m 448.999999,0 C 475.2961,139.96276 475,139.06667 475,138.33333 c 0,-1.4897 2.57786,-1.82538 3.42997,-0.44664 0.68055,1.10115 -1.86765,3.3423 -2.77198,2.43797 z"
       id="path831"
       inkscape:connector-curvature="0" />
  </g>
</svg>
